#!OML:ASF F:\VICON\USERDATA\INSTALL\Justin_Nancy\Justin_Nancy.ASF
:FULLY-SPECIFIED
:DEGREES
318
root -8.48839 17.4307 11.3332 4.25307 -50.5143 -6.33565
lowerback 7.70686 0.548398 2.98941
upperback 0.479399 1.07853 3.04897
thorax -3.83187 0.494038 1.36295
lowerneck -15.7344 -3.91767 -9.36035
upperneck 22.2426 -4.45369 5.29012
head 10.0118 -2.30012 2.82391
rclavicle -2.72832e-014 1.55052e-014
rhumerus -29.4553 -9.15989 -79.267
rradius 34.7653
rwrist 3.4574
rhand -11.5216 16.3598
rfingers 7.12502
rthumb 14.5179 -13.1122
lclavicle -2.72832e-014 1.55052e-014
lhumerus -32.8772 11.5633 84.009
lradius 25.4759
lwrist -11.4733
lhand -17.2275 23.6747
lfingers 7.12502
lthumb 9.01579 53.462
rfemur 0.00174314 4.4361 31.351
rtibia 18.8432
rfoot -13.3122 0.044662
rtoes 11.0553
lfemur -30.9683 0.31708 -15.4325
ltibia 50.7405
lfoot -7.37107 5.08026
ltoes -3.43844
319
root -8.59416 17.4275 11.4216 4.82477 -50.7055 -6.67178
lowerback 7.5371 0.71024 3.15607
upperback 0.380594 1.30529 3.0847
thorax -3.8372 0.60353 1.28371
lowerneck -15.5816 -4.04797 -9.69794
upperneck 22.0459 -4.65819 5.70661
head 9.94889 -2.3754 2.99971
rclavicle -4.44284e-014 1.19271e-014
rhumerus -29.3715 -8.73825 -79.3951
rradius 35.4009
rwrist 3.0845
rhand -11.6006 16.1762
rfingers 7.12502
rthumb 14.4418 -13.3013
lclavicle -4.44284e-014 1.19271e-014
lhumerus -32.921 11.7904 83.9097
lradius 25.224
lwrist -11.1325
lhand -15.4122 24.1489
lfingers 7.12502
lthumb 10.7671 53.853
rfemur 0.303591 4.64481 31.583
rtibia 18.6174
rfoot -13.5293 -0.0298016
rtoes 11.9179
lfemur -31.1781 0.255164 -15.1816
ltibia 48.1707
lfoot -7.22242 5.56873
ltoes -2.01396
320
root -8.69535 17.4192 11.5124 5.41641 -50.926 -7.13218
lowerback 7.40147 0.843887 3.45646
upperback 0.382739 1.49902 3.04623
thorax -3.75022 0.694863 1.05687
lowerneck -15.7439 -4.18941 -9.69493
upperneck 21.9636 -4.88884 5.92165
head 9.97542 -2.45267 3.04121
rclavicle 8.41853e-014 -3.06128e-014
rhumerus -29.0894 -8.25504 -79.6719
rradius 35.9149
rwrist 2.59242
rhand -11.4919 15.9305
rfingers 7.12502
rthumb 14.5466 -13.5395
lclavicle 8.41853e-014 -3.06128e-014
lhumerus -32.9418 12.0664 83.6694
lradius 25.1777
lwrist -10.9354
lhand -13.9274 24.8018
lfingers 7.12502
lthumb 12.1991 54.426
rfemur 0.697524 4.81283 31.9149
rtibia 18.2751
rfoot -13.7559 -0.555819
rtoes 9.89557
lfemur -31.226 0.0712114 -14.8109
ltibia 45.4872
lfoot -7.07494 6.3135
ltoes -1.02769
321
root -8.79771 17.4078 11.6162 5.46985 -51.0526 -7.04256
lowerback 7.28807 0.807511 3.37137
upperback 0.361998 1.43831 3.03665
thorax -3.71028 0.66677 1.10229
lowerneck -15.6798 -4.11911 -9.74058
upperneck 21.8899 -4.77027 5.87976
head 9.92691 -2.40664 3.0502
rclavicle 1.78906e-015 -1.19271e-014
rhumerus -28.8616 -7.51474 -79.8548
rradius 36.2842
rwrist 2.00958
rhand -11.547 15.8202
rfingers 7.12502
rthumb 14.4935 -13.6536
lclavicle 1.78906e-015 -1.19271e-014
lhumerus -33.2604 12.8768 83.423
lradius 25.0526
lwrist -11.2739
lhand -13.8395 24.7632
lfingers 7.12502
lthumb 12.2839 54.3824
rfemur 1.35799 4.70315 31.7984
rtibia 17.8074
rfoot -14.0588 -0.95052
rtoes 7.40609
lfemur -31.0208 -0.49361 -14.7756
ltibia 42.7248
lfoot -7.45674 7.19441
ltoes -0.233535
322
root -8.90431 17.3963 11.717 5.24794 -51.1648 -6.7677
lowerback 7.33074 0.775177 3.07235
upperback 0.360085 1.37494 3.08043
thorax -3.74454 0.640587 1.32115
lowerneck -15.5588 -4.03033 -9.8874
upperneck 21.7553 -4.61582 5.89228
head 9.84699 -2.34628 3.10009
rclavicle 1.2921e-015 -2.34566e-014
rhumerus -28.5673 -6.82175 -80.0123
rradius 36.5515
rwrist 1.51557
rhand -11.839 15.6228
rfingers 7.12502
rthumb 14.2122 -13.871
lclavicle 1.2921e-015 -2.34566e-014
lhumerus -33.5593 13.7348 83.2607
lradius 24.7874
lwrist -11.7963
lhand -13.4701 24.707
lfingers 7.12502
lthumb 12.64 54.3045
rfemur 2.137 4.50656 31.588
rtibia 17.3593
rfoot -14.0277 -0.794172
rtoes 7.51241
lfemur -30.6509 -1.15822 -14.8008
ltibia 39.9242
lfoot -7.63724 7.96887
ltoes 0.00595728
323
root -9.01597 17.3853 11.8305 5.35125 -51.3258 -6.89394
lowerback 7.10777 0.898459 3.27523
upperback 0.502509 1.53424 3.03048
thorax -3.4651 0.719091 1.14321
lowerneck -15.6601 -4.16219 -9.8923
upperneck 21.5774 -4.80678 6.01034
head 9.8231 -2.41642 3.1134
rclavicle -9.64106e-014 4.29375e-014
rhumerus -28.2081 -6.73035 -80.128
rradius 36.861
rwrist 1.45625
rhand -11.973 15.6248
rfingers 7.12502
rthumb 14.0831 -13.878
lclavicle -9.64106e-014 4.29375e-014
lhumerus -33.4428 13.8389 83.2338
lradius 24.4632
lwrist -11.9619
lhand -12.7222 24.9247
lfingers 7.12502
lthumb 13.361 54.4763
rfemur 3.10377 4.36899 31.6511
rtibia 16.5861
rfoot -13.833 -0.591525
rtoes 7.72537
lfemur -30.3975 -1.47829 -14.7062
ltibia 37.6305
lfoot -7.61244 8.72603
ltoes -2.22385
324
root -9.12765 17.3693 11.9555 5.60602 -51.5556 -7.02693
lowerback 6.63014 1.02173 3.63358
upperback 0.616699 1.68888 2.89539
thorax -3.06405 0.795585 0.797185
lowerneck -15.7647 -4.22307 -9.65939
upperneck 21.4516 -4.91252 5.92239
head 9.79859 -2.45154 3.02618
rclavicle 3.36443e-014 -3.97569e-016
rhumerus -27.7339 -7.01114 -80.2503
rradius 36.8382
rwrist 1.8082
rhand -12.0458 15.8101
rfingers 7.12502
rthumb 14.0128 -13.6975
lclavicle 3.36443e-014 -3.97569e-016
lhumerus -33.3643 13.6911 83.1837
lradius 24.193
lwrist -11.889
lhand -12.5239 25.1768
lfingers 7.12502
lthumb 13.5521 54.7158
rfemur 3.82302 4.19418 31.6732
rtibia 16.0857
rfoot -13.987 -0.608724
rtoes 6.21489
lfemur -30.1795 -1.33062 -14.8101
ltibia 35.3008
lfoot -7.48425 9.46475
ltoes -6.11826
325
root -9.22539 17.3859 12.0409 6.1743 -51.5792 -7.40604
lowerback 6.58396 1.03347 3.82998
upperback 0.479718 1.72414 2.94428
thorax -3.17553 0.80825 0.73467
lowerneck -15.726 -4.1534 -9.65317
upperneck 21.5242 -4.81563 5.88573
head 9.80736 -2.41227 3.0268
rclavicle 1.66979e-014 2.54444e-014
rhumerus -27.4288 -7.13437 -80.2628
rradius 36.7369
rwrist 2.087
rhand -12.1107 15.8466
rfingers 7.12502
rthumb 13.9503 -13.6653
lclavicle 1.66979e-014 2.54444e-014
lhumerus -33.6275 14.0578 83.0113
lradius 23.9452
lwrist -12.2833
lhand -12.8475 25.0456
lfingers 7.12502
lthumb 13.2402 54.6051
rfemur 4.11863 3.99587 31.9666
rtibia 15.7776
rfoot -14.0612 -0.750988
rtoes 6.08113
lfemur -29.8582 1.49598 -16.0443
ltibia 33.1961
lfoot -6.08817 9.15003
ltoes -20.8729
326
root -9.31937 17.3529 12.1253 6.47711 -51.6913 -7.45053
lowerback 6.68329 1.07353 3.63889
upperback 0.342421 1.77784 2.96811
thorax -3.37939 0.834754 0.858092
lowerneck -15.8089 -4.09896 -9.57241
upperneck 21.5941 -4.74987 5.86356
head 9.83884 -2.37718 3.01458
rclavicle -1.67476e-014 -6.75868e-015
rhumerus -27.2665 -6.83504 -80.3759
rradius 36.9705
rwrist 2.01037
rhand -11.9826 15.9548
rfingers 7.12502
rthumb 14.0737 -13.5487
lclavicle -1.67476e-014 -6.75868e-015
lhumerus -33.7867 14.6862 82.7455
lradius 23.6374
lwrist -12.9253
lhand -13.2387 25.0355
lfingers 7.12502
lthumb 12.8631 54.6192
rfemur 4.40021 4.15635 32.0782
rtibia 15.5875
rfoot -14.2415 -1.12472
rtoes 7.10095
lfemur -30.1656 -0.657819 -15.0578
ltibia 30.8935
lfoot -7.08694 10.9877
ltoes -13.2761
327
root -9.42891 17.3163 12.2314 6.77245 -52.2592 -7.54259
lowerback 6.40558 1.2938 3.61617
upperback 0.355194 2.05154 2.91411
thorax -3.20619 0.973512 0.796074
lowerneck -15.4952 -4.13344 -9.77165
upperneck 21.2386 -4.839 6.18446
head 9.67539 -2.40025 3.14844
rclavicle 8.18496e-014 -8.34896e-015
rhumerus -26.8666 -7.02534 -80.5274
rradius 36.866
rwrist 2.1732
rhand -11.7218 16.3764
rfingers 7.12502
rthumb 14.3251 -13.1094
lclavicle 8.18496e-014 -8.34896e-015
lhumerus -33.8213 14.951 82.5733
lradius 23.3514
lwrist -13.1733
lhand -13.4321 24.9584
lfingers 7.12502
lthumb 12.6766 54.5536
rfemur 4.72516 4.65387 32.1089
rtibia 15.7889
rfoot -14.7005 -1.43036
rtoes 7.86686
lfemur -30.3927 -3.22622 -13.8143
ltibia 28.7978
lfoot -9.33895 13.6454
ltoes -1.59721
328
root -9.54207 17.3089 12.3459 6.77382 -52.6025 -7.33415
lowerback 6.16412 1.45661 3.51136
upperback 0.293681 2.24996 2.86661
thorax -3.13425 1.07472 0.793511
lowerneck -15.1429 -4.21779 -10.0878
upperneck 21.0078 -4.96636 6.4496
head 9.55587 -2.45995 3.27836
rclavicle -5.01931e-015 -1.19271e-015
rhumerus -26.8318 -7.13128 -80.3943
rradius 36.952
rwrist 2.19285
rhand -11.6471 16.6446
rfingers 7.12502
rthumb 14.397 -12.8361
lclavicle -5.01931e-015 -1.19271e-015
lhumerus -34.0148 14.9418 82.5816
lradius 23.0229
lwrist -13.3509
lhand -13.2019 24.9151
lfingers 7.12502
lthumb 12.8986 54.4965
rfemur 5.02471 4.63469 31.854
rtibia 16.0824
rfoot -15.0791 -1.53738
rtoes 7.71543
lfemur -29.9698 -3.8463 -13.8377
ltibia 26.431
lfoot -9.96918 15.2269
ltoes -0.238001
329
root -9.65045 17.265 12.4578 6.72745 -52.7039 -7.08859
lowerback 5.99253 1.48626 3.35743
upperback 0.247646 2.27163 2.82734
thorax -3.08969 1.0885 0.841012
lowerneck -15.672 -4.19111 -9.73593
upperneck 21.568 -4.89275 6.03645
head 9.8255 -2.43992 3.08457
rclavicle -4.47762e-014 -1.55052e-014
rhumerus -26.8634 -7.00866 -80.2812
rradius 37.1885
rwrist 2.05972
rhand -11.3305 16.6108
rfingers 7.12502
rthumb 14.7021 -12.8479
lclavicle -4.47762e-014 -1.55052e-014
lhumerus -34.1465 14.9181 82.602
lradius 22.7318
lwrist -13.2704
lhand -13.0226 25.0152
lfingers 7.12502
lthumb 13.0714 54.5856
rfemur 5.35989 4.45308 31.6623
rtibia 16.1747
rfoot -15.2852 -1.68884
rtoes 6.38243
lfemur -29.4555 -0.81573 -15.6526
ltibia 24.622
lfoot -7.54446 14.4798
ltoes -17.4806
330
root -9.75539 17.2835 12.569 6.90892 -52.9203 -7.11947
lowerback 5.79578 1.51986 3.34825
upperback 0.269999 2.30416 2.83693
thorax -2.95666 1.10666 0.859118
lowerneck -16.2715 -4.13516 -9.41611
upperneck 22.0456 -4.77375 5.68794
head 10.0805 -2.39269 2.92292
rclavicle 1.2921e-015 1.35174e-014
rhumerus -26.4366 -6.67539 -80.5095
rradius 37.1658
rwrist 1.76792
rhand -11.6844 16.2566
rfingers 7.12502
rthumb 14.3611 -13.2266
lclavicle 1.2921e-015 1.35174e-014
lhumerus -34.2314 15.3736 82.4584
lradius 22.5647
lwrist -13.584
lhand -12.9206 25.5381
lfingers 7.12502
lthumb 13.1697 55.1021
rfemur 5.81761 4.53306 31.6012
rtibia 16.0486
rfoot -15.3608 -1.68231
rtoes 6.4982
lfemur -29.9787 -6.39393 -13.2838
ltibia 23.4693
lfoot -10.7414 18.9116
ltoes -2.69217
331
root -9.85588 17.2736 12.6765 7.45268 -52.9559 -7.58483
lowerback 5.65146 1.43359 3.65295
upperback 0.144756 2.20939 3.00155
thorax -3.00133 1.05398 0.869047
lowerneck -15.7546 -4.07571 -9.95836
upperneck 21.7411 -4.66004 5.98574
head 9.88702 -2.35768 3.13709
rclavicle 2.13197e-014 1.19271e-014
rhumerus -26.6522 -5.44611 -80.5459
rradius 37.5417
rwrist 0.909095
rhand -11.9569 16.1922
rfingers 7.12502
rthumb 14.0986 -13.3095
lclavicle 2.13197e-014 1.19271e-014
lhumerus -34.6556 16.028 82.2806
lradius 22.3914
lwrist -13.8605
lhand -12.874 25.4004
lfingers 7.12502
lthumb 13.2147 54.9616
rfemur 6.15447 4.52576 31.8304
rtibia 16.0962
rfoot -15.5086 -1.36342
rtoes 7.873
lfemur -30.5411 -12.2468 -10.5918
ltibia 22.5436
lfoot -14.9552 23.2459
ltoes 6.86629
